<?xml version="1.0" encoding="UTF-8" standalone="no"?>
<!-- Created with Inkscape (http://www.inkscape.org/) -->

<svg
   width="23.475885mm"
   height="17.495575mm"
   viewBox="-0.5 -0.5 25.14702 18.741"
   version="1.1"
   id="svg838"
   inkscape:version="1.3 (0e150ed6c4, 2023-07-21)"
   sodipodi:docname="tri.svg"
   xmlns:inkscape="http://www.inkscape.org/namespaces/inkscape"
   xmlns:sodipodi="http://sodipodi.sourceforge.net/DTD/sodipodi-0.dtd"
   xmlns="http://www.w3.org/2000/svg"
   xmlns:svg="http://www.w3.org/2000/svg">
  <sodipodi:namedview
     id="namedview840"
     pagecolor="#ffffff"
     bordercolor="#666666"
     borderopacity="1.0"
     inkscape:pageshadow="2"
     inkscape:pageopacity="0.0"
     inkscape:pagecheckerboard="0"
     inkscape:document-units="mm"
     showgrid="true"
     inkscape:showpageshadow="2"
     inkscape:deskcolor="#d1d1d1"
     inkscape:zoom="13.305746"
     inkscape:cx="80.115764"
     inkscape:cy="56.066003"
     inkscape:window-width="3840"
     inkscape:window-height="2066"
     inkscape:window-x="-11"
     inkscape:window-y="-11"
     inkscape:window-maximized="1"
     inkscape:current-layer="layer1" />
  <defs
     id="defs835" />
  <g
     inkscape:label="Layer 1"
     inkscape:groupmode="layer"
     id="layer1"
     transform="translate(-104.0663,-63.196686)">
    <path
       d="m 121.30193,68.335416 a 2,2 0 0 1 -0.40928,0.40876 2,2 0 0 1 -0.55759,0.284221 2,2 0 0 1 -0.61805,0.09767 2,2 0 0 1 -0.61805,-0.09767 2,2 0 0 1 -0.55707,-0.284221 2,2 0 0 1 -0.44286,-0.44235 2,2 0 0 1 -0.28216,-0.553971 l -9.14828,8.495088 a 2,2 0 0 1 0.10387,0.06718 2,2 0 0 1 0.16278,0.131775 2,2 0 0 1 0.1478,0.148311 2,2 0 0 1 0.13177,0.162781 2,2 0 0 1 0.11421,0.175183 2,2 0 0 1 0.0946,0.186552 2,2 0 0 1 0.0754,0.195337 2,2 0 0 1 0.0537,0.202571 2,2 0 0 1 0.0331,0.206706 2,2 0 0 1 0.0108,0.208773 2,2 0 0 1 -0.0977,0.61805 2,2 0 0 1 -0.0579,0.113171 h 13.72527 a 2,2 0 0 1 -0.002,-0.0041 2,2 0 0 1 -0.0982,-0.61805 2,2 0 0 1 0.0982,-0.61805 2,2 0 0 1 0.2837,-0.557589 2,2 0 0 1 0.44287,-0.44235 2,2 0 0 1 0.55759,-0.28422 2,2 0 0 1 0.42219,-0.06666 z"
       style="fill:none;fill-rule:evenodd;stroke:#000000;stroke-width:0.132292;stroke-linecap:round"
       id="path5"
       inkscape:export-filename="path5.png"
       inkscape:export-xdpi="2000"
       inkscape:export-ydpi="2000" />
    <path
       d="m 121.30193,68.335416 -1.23558,-2.676323 -2.24948,2.088762 a 2,2 0 0 0 0.28216,0.553971 2,2 0 0 0 0.44286,0.44235 2,2 0 0 0 0.55707,0.284221 2,2 0 0 0 0.61805,0.09767 2,2 0 0 0 0.61805,-0.09767 2,2 0 0 0 0.55759,-0.284221 2,2 0 0 0 0.40928,-0.40876 z"
       style="fill:none;fill-rule:evenodd;stroke:#000000;stroke-width:0.132292;stroke-linecap:round"
       id="path6" />
    <path
       d="m 124.87071,76.068277 a 2,2 0 0 0 -0.4222,0.06666 2,2 0 0 0 -0.55759,0.28422 2,2 0 0 0 -0.44287,0.44235 2,2 0 0 0 -0.2837,0.557589 2,2 0 0 0 -0.0982,0.61805 2,2 0 0 0 0.0982,0.61805 2,2 0 0 0 0.002,0.0041 h 2.90008 z"
       style="fill:none;fill-rule:evenodd;stroke:#000000;stroke-width:0.132292;stroke-linecap:round"
       id="path7" />
    <path
       d="m 109.44116,78.659333 a 2,2 0 0 0 0.0579,-0.113171 2,2 0 0 0 0.0977,-0.61805 2,2 0 0 0 -0.0108,-0.208773 2,2 0 0 0 -0.0331,-0.206706 2,2 0 0 0 -0.0537,-0.202571 2,2 0 0 0 -0.0754,-0.195337 2,2 0 0 0 -0.0946,-0.186552 2,2 0 0 0 -0.11421,-0.175183 2,2 0 0 0 -0.13177,-0.162781 2,2 0 0 0 -0.1478,-0.148311 2,2 0 0 0 -0.16278,-0.131775 2,2 0 0 0 -0.10387,-0.06718 l -2.60242,2.41639 z"
       style="fill:none;fill-rule:evenodd;stroke:#000000;stroke-width:0.132292;stroke-linecap:round"
       id="path8" />
    <text
       xml:space="preserve"
       style="font-style:normal;font-variant:normal;font-weight:normal;font-stretch:normal;font-size:2.82223px;line-height:1.25;font-family:Arial;-inkscape-font-specification:'Arial, Normal';font-variant-ligatures:normal;font-variant-caps:normal;font-variant-numeric:normal;font-variant-east-asian:normal;text-align:start;letter-spacing:0px;word-spacing:0px;writing-mode:lr-tb;text-anchor:start;fill:#0cac21;fill-opacity:1;stroke:none;stroke-width:0.264583"
       x="104.03598"
       y="79.6353"
       id="text8"><tspan
         sodipodi:role="line"
         id="tspan8"
         style="font-style:normal;font-variant:normal;font-weight:normal;font-stretch:normal;font-size:2.82223015px;font-family:Arial;-inkscape-font-specification:'Arial, Normal';font-variant-ligatures:normal;font-variant-caps:normal;font-variant-numeric:normal;font-variant-east-asian:normal;fill:#0cac21;fill-opacity:1;stroke-width:0.264583"
         x="104.03598"
         y="79.6353">A</tspan></text>
    <text
       xml:space="preserve"
       style="font-style:normal;font-variant:normal;font-weight:normal;font-stretch:normal;font-size:2.82223px;line-height:1.25;font-family:Arial;-inkscape-font-specification:'Arial, Normal';font-variant-ligatures:normal;font-variant-caps:normal;font-variant-numeric:normal;font-variant-east-asian:normal;text-align:start;letter-spacing:0px;word-spacing:0px;writing-mode:lr-tb;text-anchor:start;fill:#0cac21;fill-opacity:1;stroke:none;stroke-width:0.264583"
       x="119.0663"
       y="65.205872"
       id="text9"><tspan
         sodipodi:role="line"
         id="tspan9"
         style="font-style:normal;font-variant:normal;font-weight:normal;font-stretch:normal;font-size:2.82223015px;font-family:Arial;-inkscape-font-specification:'Arial, Normal';font-variant-ligatures:normal;font-variant-caps:normal;font-variant-numeric:normal;font-variant-east-asian:normal;fill:#0cac21;fill-opacity:1;stroke-width:0.264583"
         x="119.0663"
         y="65.205872">C</tspan></text>
    <text
       xml:space="preserve"
       style="font-style:normal;font-variant:normal;font-weight:normal;font-stretch:normal;font-size:2.82223px;line-height:1.25;font-family:Arial;-inkscape-font-specification:'Arial, Normal';font-variant-ligatures:normal;font-variant-caps:normal;font-variant-numeric:normal;font-variant-east-asian:normal;text-align:start;letter-spacing:0px;word-spacing:0px;writing-mode:lr-tb;text-anchor:start;fill:#0cac21;fill-opacity:1;stroke:none;stroke-width:0.264583"
       x="126.0663"
       y="79.659187"
       id="text10"><tspan
         sodipodi:role="line"
         id="tspan10"
         style="font-style:normal;font-variant:normal;font-weight:normal;font-stretch:normal;font-size:2.82223015px;font-family:Arial;-inkscape-font-specification:'Arial, Normal';font-variant-ligatures:normal;font-variant-caps:normal;font-variant-numeric:normal;font-variant-east-asian:normal;fill:#0cac21;fill-opacity:1;stroke-width:0.264583"
         x="126.0663"
         y="79.659187">B</tspan></text>
    <text
       xml:space="preserve"
       style="font-style:normal;font-variant:normal;font-weight:normal;font-stretch:normal;font-size:2.4694451px;line-height:1.25;font-family:Arial;-inkscape-font-specification:'Arial, Normal';font-variant-ligatures:normal;font-variant-caps:normal;font-variant-numeric:normal;font-variant-east-asian:normal;text-align:start;letter-spacing:0px;word-spacing:0px;writing-mode:lr-tb;text-anchor:start;fill:#df0000;fill-opacity:1;stroke:none;stroke-width:0.199096"
       x="107.61305"
       y="78.364052"
       id="text11"><tspan
         sodipodi:role="line"
         id="tspan11"
         style="font-style:normal;font-variant:normal;font-weight:normal;font-stretch:normal;font-size:2.4694451px;font-family:Arial;-inkscape-font-specification:'Arial, Normal';font-variant-ligatures:normal;font-variant-caps:normal;font-variant-numeric:normal;font-variant-east-asian:normal;fill:#df0000;fill-opacity:1;stroke-width:0.199096"
         x="107.61305"
         y="78.364052">α</tspan></text>
    <text
       xml:space="preserve"
       style="font-style:normal;font-variant:normal;font-weight:normal;font-stretch:normal;font-size:2.4694451px;line-height:1.25;font-family:Arial;-inkscape-font-specification:'Arial, Normal';font-variant-ligatures:normal;font-variant-caps:normal;font-variant-numeric:normal;font-variant-east-asian:normal;text-align:start;letter-spacing:0px;word-spacing:0px;writing-mode:lr-tb;text-anchor:start;fill:#df0000;fill-opacity:1;stroke:none;stroke-width:0.169435"
       x="123.90103"
       y="78.278992"
       id="text12"><tspan
         sodipodi:role="line"
         id="tspan12"
         style="font-style:normal;font-variant:normal;font-weight:normal;font-stretch:normal;font-size:2.4694451px;font-family:Arial;-inkscape-font-specification:'Arial, Normal';font-variant-ligatures:normal;font-variant-caps:normal;font-variant-numeric:normal;font-variant-east-asian:normal;fill:#df0000;fill-opacity:1;stroke-width:0.169435"
         x="123.90103"
         y="78.278992">β</tspan></text>
    <text
       xml:space="preserve"
       style="font-style:normal;font-variant:normal;font-weight:normal;font-stretch:normal;font-size:2.82222px;line-height:1.25;font-family:Arial;-inkscape-font-specification:'Arial, Normal';font-variant-ligatures:normal;font-variant-caps:normal;font-variant-numeric:normal;font-variant-east-asian:normal;text-align:start;letter-spacing:0px;word-spacing:0px;writing-mode:lr-tb;text-anchor:start;fill:#df0000;fill-opacity:1;stroke:none;stroke-width:0.381478"
       x="119.04564"
       y="68.106598"
       id="text13"><tspan
         sodipodi:role="line"
         id="tspan13"
         x="119.04564"
         y="68.106598"
         style="font-style:normal;font-variant:normal;font-weight:normal;font-stretch:normal;font-size:2.82222015px;font-family:Arial;-inkscape-font-specification:'Arial, Normal';font-variant-ligatures:normal;font-variant-caps:normal;font-variant-numeric:normal;font-variant-east-asian:normal;fill:#df0000;fill-opacity:1;stroke-width:0.381478">𝛾</tspan></text>
    <text
       xml:space="preserve"
       style="font-style:normal;font-variant:normal;font-weight:normal;font-stretch:normal;font-size:2.82223px;line-height:1.25;font-family:Arial;-inkscape-font-specification:'Arial, Normal';font-variant-ligatures:normal;font-variant-caps:normal;font-variant-numeric:normal;font-variant-east-asian:normal;text-align:start;letter-spacing:0px;word-spacing:0px;writing-mode:lr-tb;text-anchor:start;fill:#2446d5;fill-opacity:1;stroke:none;stroke-width:0.264583;stroke-opacity:1"
       x="123.61661"
       y="72.155746"
       id="text14"><tspan
         sodipodi:role="line"
         id="tspan14"
         style="font-style:normal;font-variant:normal;font-weight:normal;font-stretch:normal;font-size:2.82223px;font-family:Arial;-inkscape-font-specification:'Arial, Normal';font-variant-ligatures:normal;font-variant-caps:normal;font-variant-numeric:normal;font-variant-east-asian:normal;fill:#2446d5;fill-opacity:1;stroke:none;stroke-width:0.264583;stroke-opacity:1"
         x="123.61661"
         y="72.155746">a</tspan></text>
    <text
       xml:space="preserve"
       style="font-style:normal;font-variant:normal;font-weight:normal;font-stretch:normal;font-size:2.82223px;line-height:1.25;font-family:Arial;-inkscape-font-specification:'Arial, Normal';font-variant-ligatures:normal;font-variant-caps:normal;font-variant-numeric:normal;font-variant-east-asian:normal;text-align:start;letter-spacing:0px;word-spacing:0px;writing-mode:lr-tb;text-anchor:start;fill:#2446d5;fill-opacity:1;stroke:none;stroke-width:0.264583;stroke-opacity:1"
       x="111.61247"
       y="71.679398"
       id="text15"><tspan
         sodipodi:role="line"
         id="tspan15"
         style="font-style:normal;font-variant:normal;font-weight:normal;font-stretch:normal;font-size:2.82223px;font-family:Arial;-inkscape-font-specification:'Arial, Normal';font-variant-ligatures:normal;font-variant-caps:normal;font-variant-numeric:normal;font-variant-east-asian:normal;fill:#2446d5;fill-opacity:1;stroke:none;stroke-width:0.264583;stroke-opacity:1"
         x="111.61247"
         y="71.679398">b</tspan></text>
    <text
       xml:space="preserve"
       style="font-style:normal;font-variant:normal;font-weight:normal;font-stretch:normal;font-size:2.82223px;line-height:1.25;font-family:Arial;-inkscape-font-specification:'Arial, Normal';font-variant-ligatures:normal;font-variant-caps:normal;font-variant-numeric:normal;font-variant-east-asian:normal;text-align:start;letter-spacing:0px;word-spacing:0px;writing-mode:lr-tb;text-anchor:start;fill:#2446d5;fill-opacity:1;stroke:none;stroke-width:0.264583;stroke-opacity:1"
       x="116.0663"
       y="80.659187"
       id="text16"><tspan
         sodipodi:role="line"
         id="tspan16"
         style="font-style:normal;font-variant:normal;font-weight:normal;font-stretch:normal;font-size:2.82223px;font-family:Arial;-inkscape-font-specification:'Arial, Normal';font-variant-ligatures:normal;font-variant-caps:normal;font-variant-numeric:normal;font-variant-east-asian:normal;fill:#2446d5;fill-opacity:1;stroke:none;stroke-width:0.264583;stroke-opacity:1"
         x="116.0663"
         y="80.659187">c</tspan></text>
  </g>
</svg>
